<svg width="20" height="28" viewBox="0 0 20 28" fill="none" xmlns="http://www.w3.org/2000/svg">
<path d="M8.57227 21.6364C9.18211 21.2918 9.92538 21.2791 10.5469 21.6022C10.9018 21.7868 12.7339 22.7402 13.3926 23.0827C13.9083 22.9335 14.4912 22.9431 14.9961 23.1149L18.0322 24.1491C18.4544 24.2928 18.8095 24.5304 19.0234 24.8708C19.2452 25.2237 19.2789 25.6331 19.1406 26.0036C18.8732 26.7196 18.0696 27.1188 17.1768 27.1188H2.67188C1.79285 27.1188 0.998996 26.7311 0.71875 26.0339C0.573614 25.6726 0.593546 25.2674 0.801758 24.9108C1.00291 24.5666 1.34634 24.3215 1.75684 24.1696L4.55078 23.1364C5.02567 22.9608 5.57571 22.9315 6.07617 23.0466L8.57227 21.6364Z" fill="#F9FCF8" stroke="#348E2B" stroke-width="1.25"/>
<path d="M17.8013 2.94501C15.4896 3.07744 13.2505 4.27844 11.8091 6.43036C10.3631 8.58924 10.0441 11.2255 10.7222 13.5739C13.0334 13.4411 15.2722 12.2411 16.7134 10.0895C18.1594 7.93051 18.4795 5.29357 17.8013 2.94501Z" fill="#70D767" stroke="#70D767" stroke-width="0.909091"/>
<path d="M10.4951 12.4867C10.5154 11.9964 10.8256 11.4729 11.1189 11.0704C11.6925 10.2834 12.4623 9.64857 13.1367 8.93553C13.6882 8.35247 14.3779 7.87929 14.9235 7.29814C15.1079 7.1016 15.4275 6.93268 15.555 6.70398" stroke="#348E2B" stroke-width="1.25" stroke-linecap="round"/>
<path d="M2.57512 0.503886C5.81846 0.749817 8.89044 2.57251 10.6994 5.68478C12.507 8.79499 12.6424 12.484 11.3787 15.6085L11.2543 15.9166L10.9232 15.8916C7.67986 15.6457 4.60799 13.822 2.79906 10.7097C0.991435 7.59952 0.856047 3.91053 2.11972 0.78602L2.24401 0.478855L2.57512 0.503886Z" fill="#70D767" stroke="#F9FCF8" stroke-width="0.909091"/>
<path d="M7.06982 8.25995C7.24808 8.42468 7.3779 8.64984 7.51914 8.84473C7.92883 9.41007 8.35367 9.97379 8.72325 10.5665C9.05865 11.1044 9.35372 11.6546 9.63453 12.2217C10.1309 13.2242 10.6633 14.4304 10.6428 15.5714C10.6287 16.3588 10.6224 17.118 10.4917 17.8987C10.4147 18.3585 10.3317 18.8142 10.2416 19.2711C10.1797 19.5851 10.1635 19.9113 10.0872 20.2198C10.0613 20.3246 9.93073 20.7911 10.0157 20.8661" stroke="#348E2B" stroke-width="1.25" stroke-linecap="round"/>
<path d="M7.10156 7.87116C7.10156 7.63362 7.16637 7.40557 7.21641 7.1751C7.2446 7.0453 7.26817 6.91487 7.29762 6.7853C7.33805 6.60741 7.34334 6.4244 7.38289 6.24643C7.42578 6.0534 7.45365 5.85841 7.50238 5.66638C7.52601 5.57325 7.5452 5.47892 7.56561 5.38505C7.57357 5.34839 7.59229 5.30917 7.59229 5.27136" stroke="#348E2B" stroke-width="1.25" stroke-linecap="round"/>
<path d="M6.86162 8.12164C6.70896 8.11577 6.5578 8.03717 6.40918 8.00679C6.22203 7.96853 6.03506 7.92419 5.84884 7.8815C5.71228 7.85018 5.58161 7.79238 5.44977 7.74576C5.37917 7.7208 5.305 7.70533 5.23341 7.68312C5.20023 7.67282 5.16379 7.65179 5.12842 7.65179" stroke="#348E2B" stroke-width="1.25" stroke-linecap="round"/>
</svg>
